<svg version="1" xmlns="http://www.w3.org/2000/svg" width="21.333" height="21.333" viewBox="0 0 16.000000 16.000000"><path d="M14.34 1.896a.515.515 0 0 1-.094.02 1.352 1.352 0 0 0-.36.117 1.4 1.4 0 0 0-.274.164 1.845 1.845 0 0 0-.29.293 1.348 1.348 0 0 0-.204.387.146.146 0 0 0-.014.03.411.411 0 0 1-.023.087.338.338 0 0 0-.017.065c-.004.03-.01.068-.015.087-.004.02-.01.108-.012.198-.004.149.001.195.041.396.02.101.161.413.213.469.015.015.027.035.027.042 0 .027.27.283.36.342.05.032.089.062.086.068a.663.663 0 0 0-.014.104c-.005.053-.01.11-.015.13-.003.019-.01.073-.015.122l-.024.226a8.492 8.492 0 0 0-.036.341.14.14 0 0 0-.007.034c-.018.182-.023.231-.029.267a6.83 6.83 0 0 0-.019.191.284.284 0 0 0-.006.05c-.003.044-.011.114-.03.271l-.026.246a3.63 3.63 0 0 1-.013.11 4.9 4.9 0 0 0-.027.245 3.744 3.744 0 0 1-.012.123c-.011.083-.02.17-.03.26-.003.04-.01.1-.014.13s-.01.081-.012.115c-.007.069-.02.18-.028.233l-.013.13c-.004.051-.011.113-.014.136l-.014.116-.013.123c-.004.026-.01.08-.014.122a1.46 1.46 0 0 1-.014.109 2.62 2.62 0 0 0-.013.124c-.004.05-.01.11-.014.137-.004.026-.01.085-.014.13a.977.977 0 0 1-.012.113c-.004.016-.01.08-.015.143-.004.062-.01.122-.014.133-.005.02-.02.183-.028.307a27.254 27.254 0 0 0-.082.977l-.014.143-.012.13a55.336 55.336 0 0 1-.055.629l-.026.357c-.001.026-.01.039-.033.043-.016.002-.034 0-.038-.006a2.54 2.54 0 0 1-.078-.313c.004 0 .002-.008-.007-.017a.144.144 0 0 1-.021-.05.838.838 0 0 0-.02-.079c-.008-.023-.01-.046-.005-.05.004-.004.001-.008-.005-.008-.007 0-.013-.014-.014-.032a1.426 1.426 0 0 0-.038-.16c-.02-.07-.04-.139-.041-.15a7.982 7.982 0 0 0-.055-.205c-.003-.01-.02-.07-.034-.13a4.097 4.097 0 0 1-.037-.143 5.33 5.33 0 0 0-.04-.157 6.766 6.766 0 0 1-.04-.157c-.005-.029-.025-.108-.069-.278-.008-.027-.012-.046-.034-.139a3.202 3.202 0 0 0-.041-.17 1.316 1.316 0 0 1-.022-.09l-.02-.088-.02-.089a6.209 6.209 0 0 0-.102-.396 1.485 1.485 0 0 1-.034-.135c-.003-.022-.014-.045-.023-.05-.01-.008-.014-.013-.01-.013.008 0 .004-.025-.022-.123-.002-.011-.005-.02-.007-.02 0 0-.004-.01-.006-.021-.015-.056-.036-.13-.076-.266a1.934 1.934 0 0 1-.045-.168c0-.009-.004-.017-.01-.017-.003 0-.007-.01-.009-.024a1.154 1.154 0 0 0-.024-.106 1.61 1.61 0 0 1-.026-.095.093.093 0 0 0-.01-.028.338.338 0 0 1-.029-.105.195.195 0 0 0-.017-.057.339.339 0 0 1-.02-.052.181.181 0 0 0-.01-.052 3.292 3.292 0 0 1-.05-.178.467.467 0 0 0-.013-.04.22.22 0 0 1-.014-.048.346.346 0 0 0-.012-.048 4.568 4.568 0 0 0-.066-.225l-.042-.15-.026-.09a.554.554 0 0 1-.026-.113.898.898 0 0 0-.022-.059.278.278 0 0 1-.02-.08c0-.017-.004-.034-.01-.04a.537.537 0 0 1-.035-.101 13.217 13.217 0 0 0-.084-.303 1.944 1.944 0 0 0-.028-.099 1.066 1.066 0 0 1-.022-.086.253.253 0 0 0-.02-.056.285.285 0 0 1-.02-.075.13.13 0 0 0-.012-.05 1.024 1.024 0 0 1-.05-.166 14.715 14.715 0 0 0-.072-.254c-.037-.128-.075-.26-.084-.297l-.018-.065h-1.006l-.016.058c-.008.032-.016.068-.02.079a.555.555 0 0 1-.018.057c-.008.022-.011.039-.007.039.003 0 0 .012-.008.028a.198.198 0 0 0-.022.064c-.004.02-.016.066-.027.1a.805.805 0 0 0-.033.115c-.002 0-.004.01-.007.02-.008.035-.11.386-.191.67-.043.146-.086.3-.097.341l-.047.164-.094.328c-.037.131-.074.26-.082.284l-.014.05c0 .005-.01.043-.024.087l-.025.084a.885.885 0 0 1-.042.144l-.038.143a9.365 9.365 0 0 0-.05.174c-.002.002-.004.008-.005.013l-.01.039-.046.164-.044.157c-.01.026-.013.037-.03.095l-.09.321-.083.294c-.032.12-.05.19-.055.219l-.042.17c-.02.074-.036.142-.037.15a.594.594 0 0 0-.026.102 6.495 6.495 0 0 1-.11.424.488.488 0 0 1-.014.055.449.449 0 0 0-.015.062c-.011.054-.018.082-.022.082a1.214 1.214 0 0 1-.026.11l-.02.074c-.003.01-.006.02-.008.02l-.006.02c-.002.012-.026.107-.055.213l-.055.211-.047.178c-.024.086-.045.168-.048.18l-.014.048c-.022.086-.035.138-.04.164a.877.877 0 0 1-.021.066c-.007.019-.01.034-.007.034.004 0-.002.022-.012.048-.011.025-.017.047-.013.047.004 0 0 .009-.008.018-.008.011-.01.022-.007.027.004.005-.004.014-.019.022-.035.02-.04.007-.05-.155l-.014-.171-.015-.17c-.011-.14-.015-.19-.025-.288l-.013-.143-.014-.137-.015-.13a1.558 1.558 0 0 0-.014-.095l-.007-.048c0-.011-.013.014-.028.055a.966.966 0 0 1-.047.109.277.277 0 0 0-.019.045c0 .005-.01.029-.022.05a.167.167 0 0 0-.019.048 6.722 6.722 0 0 1-.427.791 12.026 12.026 0 0 0-.216.309 1.698 1.698 0 0 0-.06.071c-.041.05-.05.072-.044.102l.014.086.013.082c.004.02.017.104.029.189l.026.178c.003.012.01.053.014.088.005.037.013.08.016.096a.763.763 0 0 1 .01.078c.004.026.013.094.023.15.01.056.019.127.023.157.003.03.01.058.012.062.01.01 1.508.008 1.523-.002.007-.004.015-.019.018-.034l.029-.115c.012-.049.026-.103.029-.121a.271.271 0 0 1 .02-.059c.007-.014.01-.025.004-.025-.004 0 0-.01.01-.023.01-.012.017-.024.016-.027a.007.007 0 0 1-.003-.008l.006-.037a.789.789 0 0 1 .019-.086 4.553 4.553 0 0 0 .076-.29.368.368 0 0 1 .02-.068c.01-.023.016-.042.016-.045v-.007c.003-.01.015-.061.019-.085l.041-.157c.02-.07.04-.14.041-.154a.12.12 0 0 1 .012-.034.224.224 0 0 0 .015-.052c.015-.075.02-.094.062-.245.023-.083.044-.162.046-.177l.063-.24c.068-.256.098-.368.103-.396a49.78 49.78 0 0 0 .22-.833l.024-.095.027-.11a2.02 2.02 0 0 1 .022-.088l.02-.076a60.823 60.823 0 0 0 .232-.935l.11-.458.026-.11a6.83 6.83 0 0 1 .071-.307c.003-.015.01-.042.012-.061.006-.03.02-.087.044-.184l.011-.055a.097.097 0 0 1 .007-.027l.007-.02a9.67 9.67 0 0 1 .08-.377c.006-.02.025-.133.025-.15 0-.008.005-.022.014-.031.008-.008.01-.017.008-.017-.004 0 .001-.035.012-.079.02-.075.026-.112.03-.15.002-.02.063-.016.063.004a2.852 2.852 0 0 0 .048.273 9.689 9.689 0 0 0 .076.4l.014.067.012.069a.536.536 0 0 0 .014.06.278.278 0 0 1 .014.067c.002.019.016.089.032.157.041.17.044.187.05.225.005.02.01.052.016.075a9.728 9.728 0 0 0 .08.348c.006.032.018.083.026.11.005.014.011.04.014.057.007.036.029.13.05.202a12.868 12.868 0 0 0 .115.482c.002.014.009.038.013.051l.013.055c.003.015.011.048.02.072l.032.12a73.641 73.641 0 0 1 .187.71c.017.055.04.144.054.198.015.051.035.132.049.177l.027.103c.004.01.02.066.034.122.017.056.032.112.033.123l.012.041c.009.02.077.264.085.3.003.012.02.068.034.124a15.684 15.684 0 0 0 .089.314l.055.198.028.103c.035.118.069.241.108.389.02.075.04.14.043.146.006.011.012.031.027.105a.2.2 0 0 0 .014.045c.004.007.01.025.013.043.003.016.033.128.069.248.057.205.07.25.072.267.001.008 1.555.008 1.563 0a.347.347 0 0 0 .015-.076c.004-.038.01-.08.013-.095.003-.015.01-.055.014-.089a3.242 3.242 0 0 0 .029-.191l.015-.103.012-.09.012-.089c.006-.03.034-.21.041-.271l.014-.082a2.45 2.45 0 0 0 .014-.103l.013-.095c.011-.056.024-.14.03-.2a1.16 1.16 0 0 1 .014-.089c.003-.017.01-.06.014-.094l.013-.102a3.11 3.11 0 0 0 .026-.178l.014-.089a4.61 4.61 0 0 0 .048-.334c.002 0 .01-.037.02-.117.006-.04.013-.087.014-.102.003-.015.01-.055.014-.089l.027-.19.015-.095c.005-.034.01-.075.015-.09a5.309 5.309 0 0 1 .045-.321 4.64 4.64 0 0 0 .033-.226c.004-.037.012-.09.03-.205l.014-.082c.002-.023.008-.053.01-.07a5.777 5.777 0 0 0 .036-.257l.007-.041.012-.082a1.16 1.16 0 0 0 .016-.103c.005-.034.01-.076.014-.096l.012-.088.014-.103.016-.109a.437.437 0 0 1 .018-.102c.002 0 .004-.02.007-.041a23.36 23.36 0 0 0 .096-.675l.027-.18.027-.17.014-.096c.004-.038.01-.083.014-.102.002-.02.01-.059.013-.089l.015-.09.013-.096c.004-.032.013-.097.021-.142.009-.045.017-.103.02-.13a1.15 1.15 0 0 1 .013-.095 2.3 2.3 0 0 0 .014-.096 3.4 3.4 0 0 1 .026-.172c.005-.027.022-.142.029-.21.002-.02.008-.056.013-.082.01-.05.013-.071.026-.185.006-.038.012-.083.017-.102.006-.035.012-.07.026-.178l.016-.109a.55.55 0 0 0 .01-.093c0-.023.004-.043.008-.043s.008-.024.01-.052a.376.376 0 0 1 .017-.106.319.319 0 0 0 .007-.051.757.757 0 0 1 .01-.082.993.993 0 0 0 .017-.112c.011-.09.032-.123.086-.137.02-.005.041-.015.045-.022.004-.008.017-.015.028-.018a.709.709 0 0 0 .121-.07 1.711 1.711 0 0 0 .463-.494.067.067 0 0 0 .015-.038c0-.01.007-.02.014-.02.008 0 .014-.007.014-.016a.49.49 0 0 1 .034-.088.402.402 0 0 0 .034-.093c0-.01.004-.022.01-.028.005-.004.01-.016.012-.025.002-.01.013-.063.027-.12a1.976 1.976 0 0 0 0-.62c-.004-.016-.012-.049-.02-.073-.007-.023-.01-.044-.006-.044s.001-.008-.005-.018a.256.256 0 0 1-.032-.07.894.894 0 0 0-.031-.083c-.008-.015-.017-.03-.017-.034a2.295 2.295 0 0 0-.121-.21 1.819 1.819 0 0 0-.336-.344 1.763 1.763 0 0 0-.458-.233l-.052-.01c-.02-.003-.05-.012-.065-.016a.732.732 0 0 0-.064-.016 5.09 5.09 0 0 0-.416-.011zm.362.766l.085.024a.383.383 0 0 1 .066.034.31.31 0 0 0 .062.03c.022 0 .193.18.228.239a.734.734 0 0 1-.382 1.072c-.094.034-.254.059-.254.038 0-.005-.015-.004-.033.003-.018.007-.035.01-.04.006-.002-.004-.023-.01-.045-.014a.734.734 0 0 1-.524-.387c0-.008-.006-.015-.014-.015-.007 0-.013-.015-.013-.032 0-.02-.006-.037-.013-.041-.007-.005-.015-.025-.019-.046a.949.949 0 0 0-.016-.072.937.937 0 0 1 .008-.294c.02-.079.071-.199.113-.258a.77.77 0 0 1 .493-.303.367.367 0 0 0 .058-.01.91.91 0 0 1 .24.026zM.044 2.228L0 2.232l.003 5.57.004 5.568H1.4l.004-4.995.003-4.995.769.004c.713.005.944.01 1.042.027l.108.015c.093.01.157.02.198.027l.116.022c.045.008.117.023.157.034.041.011.092.024.112.026.021.003.046.01.055.015a.11.11 0 0 0 .045.015c.015.003.04.01.055.017.015.005.061.022.102.035.041.014.097.033.123.045.246.105.424.196.543.278.031.021.062.04.07.04.007 0 .016.003.018.009a.83.83 0 0 0 .107.089c.056.042.136.109.177.147.041.038.082.075.09.08.024.016.218.24.28.324a.799.799 0 0 0 .074.09c.007.006.009.012.003.012-.007 0-.001.01.01.021.031.032.252.407.26.443l.054.116a1.39 1.39 0 0 1 .08.19.35.35 0 0 1 .024.064 4.122 4.122 0 0 1 .128.4l.036.144a2.253 2.253 0 0 1 .046.206c.004.011.01.042.014.068l.013.075a5.295 5.295 0 0 1 .03.186 6.442 6.442 0 0 1 .052.545.37.37 0 0 0 .01.075c.01.018.003.947-.007 1.052-.016.163-.023.261-.022.304 0 .024-.004.045-.01.045-.005 0-.01.016-.01.036-.002.066-.02.214-.034.291a3.668 3.668 0 0 0-.035.192c-.002.01-.01.04-.013.065-.01.055-.041.185-.06.246l-.015.055a.558.558 0 0 1-.015.064c-.009.03-.018.067-.02.082a.283.283 0 0 1-.019.055c-.02.043-.088.258-.086.269.002.006-.002.01-.01.01-.007 0-.014.013-.014.028 0 .015-.007.027-.015.027-.007 0-.011.006-.007.011.004.007-.003.029-.014.05a.228.228 0 0 0-.019.057c0 .01-.005.019-.014.019-.006 0-.013.008-.013.019a1.665 1.665 0 0 1-.133.275 3.996 3.996 0 0 1-.17.286l-.097.132c-.107.143-.1.135-.197.243a2.655 2.655 0 0 1-.324.306 2.87 2.87 0 0 1-.366.252c-.133.078-.123.08-.209-.03a1.367 1.367 0 0 0-.212-.214l-.074-.06a1.794 1.794 0 0 0-.398-.204 1.618 1.618 0 0 0-.819-.034 1.908 1.908 0 0 0-.461.2c-.065.036-.305.26-.365.34-.071.093-.178.281-.178.315 0 .01-.005.018-.012.018s-.016.02-.022.044a.702.702 0 0 1-.013.052l-.011.027a.627.627 0 0 0-.024.082l-.02.089c-.018.073-.033.416-.02.416.006 0 .01.014.01.03 0 .112.054.298.136.474a.31.31 0 0 0 .047.08 1.088 1.088 0 0 0 .224.305c.024.026.066.065.093.088l.069.055c.013.013.103.073.165.112.04.026.143.072.205.094.03.01.064.023.075.029.01.004.023.01.027.01.037.01.153.036.191.043.072.013.394.013.465 0 .034-.007.074-.014.089-.015a.224.224 0 0 0 .048-.011l.128-.043a1.54 1.54 0 0 0 .436-.24c.063-.05.214-.205.214-.217 0-.007.004-.015.011-.018a.645.645 0 0 0 .119-.168.259.259 0 0 1 .038-.063.882.882 0 0 0 .056-.121c.045-.114.048-.116.114-.142l.106-.043c.023-.01.055-.022.073-.027.016-.004.072-.029.122-.052l.099-.044a.567.567 0 0 0 .15-.078c0-.005.004-.01.011-.008a.32.32 0 0 0 .119-.057c.004-.007.02-.014.035-.014.014 0 .026-.005.026-.01 0-.007.017-.02.037-.03.032-.014.277-.169.312-.196l.116-.087a3.283 3.283 0 0 0 .192-.155 5.97 5.97 0 0 0 .495-.505c.01-.011.037-.045.059-.075a5.564 5.564 0 0 0 .43-.663c.014-.012.101-.198.097-.209-.002-.005.003-.01.01-.01.008 0 .014-.005.014-.012s.014-.04.03-.078c.017-.036.032-.07.032-.073a.461.461 0 0 1 .02-.048.754.754 0 0 0 .055-.137 3.017 3.017 0 0 0 .107-.307l.028-.086c.015-.043.025-.078.02-.078-.003 0 0-.011.008-.025a.271.271 0 0 0 .02-.058l.029-.115a2.626 2.626 0 0 0 .04-.157.805.805 0 0 0 .014-.067.473.473 0 0 1 .013-.066.818.818 0 0 0 .015-.065l.056-.325c.002-.02.008-.054.012-.076l.014-.105.012-.109c.005-.042.022-.206.03-.3l.012-.199.013-.202c.001-.034-.003-.057-.011-.057-.011 0-.011-.003 0-.011.022-.015.012-.809-.014-1.048a7.216 7.216 0 0 1-.015-.164 3.451 3.451 0 0 0-.014-.136c-.002-.024-.01-.075-.013-.116a8.069 8.069 0 0 0-.075-.465l-.02-.095a1.106 1.106 0 0 0-.031-.137.404.404 0 0 1-.022-.107.125.125 0 0 0-.015-.053c-.004-.004-.008-.023-.008-.04 0-.019-.007-.032-.016-.032-.009 0-.013-.004-.009-.008.006-.005.003-.028-.004-.051a7.985 7.985 0 0 0-.183-.542c-.003-.01-.027-.067-.064-.155-.082-.195-.337-.664-.369-.676-.005-.003-.01-.01-.01-.016 0-.017-.043-.077-.144-.21-.045-.058-.088-.117-.096-.128a5.953 5.953 0 0 0-.492-.51 3.65 3.65 0 0 0-.375-.286c-.026-.023-.055-.041-.064-.041-.01 0-.018-.007-.018-.014 0-.008-.01-.013-.02-.013-.012 0-.021-.007-.021-.014 0-.008-.006-.014-.014-.014a.453.453 0 0 1-.09-.049 5.403 5.403 0 0 0-.531-.266 7.486 7.486 0 0 0-.472-.17c-.045-.01-.135-.034-.232-.06a.921.921 0 0 0-.132-.028c-.018 0-.032-.007-.032-.015 0-.007-.005-.011-.01-.007a.422.422 0 0 1-.099-.013l-.137-.025-.082-.014a4.434 4.434 0 0 0-.3-.041 6.619 6.619 0 0 0-.587-.044c-.18-.008-2.913-.015-2.99-.008zm3.378 9.68a.73.73 0 0 1 .528.37 1.121 1.121 0 0 1 .052.105.233.233 0 0 1 .007.024l.014.055c.023.09.024.253.003.342a.64.64 0 0 1-.078.19.322.322 0 0 0-.026.045c-.05.1-.222.23-.364.282a.741.741 0 0 1-.963-.515.748.748 0 0 1 .379-.826c.094-.048.235-.086.272-.073.01.005.019.003.019-.004 0-.01.058-.01.157.004z"/></svg>