<svg xmlns="http://www.w3.org/2000/svg" preserveAspectRatio="xMidYMid" viewBox="0 0 30982.92 23670.924" height="894.649" width="1171.008" version="1.2" fill-rule="evenodd" stroke-width="28.222" stroke-linejoin="round"><defs class="ClipPathGroup"><clipPath id="a"><path d="M0 0h33867v33867H0z"/></clipPath></defs><g class="SlideGroup"><g clip-path="url(#a)" class="Slide" transform="matrix(3.512 0 0 3.512 -43980.857 -42519.863)"><g class="Page"><g class="com.sun.star.drawing.PolyPolygonShape"><path class="BoundingBox" fill="none" d="M-1 3227h33870v27414H-1z"/></g><g class="com.sun.star.drawing.TextShape"><path class="BoundingBox" fill="none" d="M8495 19820h33756v3283H8495z"/></g><g class="com.sun.star.drawing.ClosedBezierShape"><path class="BoundingBox" fill="none" d="M16456 12106h4890v6331h-4890z"/><path d="M20528 12107c451 0 817 365 817 817 0 341-209 634-507 756l-702 4756h-862c-333-1221-712-2432-927-3680h-28c-258 1247-595 2448-918 3680h-843l-102-668c214-258 374-550 491-864v1c28 247 51 498 70 754h28c69-256 136-509 201-758 66-250 130-503 192-759l647-2266h552l646 2266c57 250 117 501 183 754 65 253 133 507 201 763h38c18-256 40-509 65-758 25-250 38-504 66-759l277-2514c-241-142-403-404-403-704 0-452 366-817 818-817zm0 0zm0 411c224 0 406 182 406 406s-182 405-406 405-406-181-406-405 182-406 406-406z"/></g><g class="com.sun.star.drawing.ClosedBezierShape"><path class="BoundingBox" fill="none" d="M12523 12293h4346v6555h-4346z"/><path d="M14348 17213c283 0 533 144 679 362 202-104 373-244 516-422 347-431 520-1036 520-1816s-173-1376-520-1789c-347-412-870-618-1568-618h-676v5506h-776v-6142h1498c930 0 1637 262 2122 786 483 524 725 1277 725 2257 0 487-61 922-182 1306-122 384-302 709-539 974-237 266-531 468-881 609-45 18-91 35-139 51-104 331-414 570-779 570-451 0-818-366-818-817s367-817 818-817zm0 0zm0 411c224 0 406 182 406 406s-182 405-406 405-405-181-405-405 181-406 405-406z"/></g></g></g></g></svg>